<?xml version="1.0" encoding="UTF-8"?>
<!DOCTYPE svg PUBLIC "-//W3C//DTD SVG 1.1//EN" "http://www.w3.org/Graphics/SVG/1.1/DTD/svg11.dtd">
<svg version="1.1" xmlns="http://www.w3.org/2000/svg" xmlns:xlink="http://www.w3.org/1999/xlink" x="0" y="0" width="640" height="480" viewBox="0, 0, 640, 480">
  <g id="Background">
    <rect x="0" y="0" width="640" height="480" fill="#0E0C0C"/>
  </g>
  <g id="Layer_1">
    <g>
      <g>
        <text transform="matrix(1, 0, 0, 1, 279.5, 55.25)">
          <tspan x="-51.158" y="7.5" font-family="Helvetica" font-size="24" fill="#FFFFFE">Webpage</tspan>
        </text>
        <path d="M231.307,45.535 L234.553,59.539 L238.443,45.535 L240.975,45.535 L244.865,59.539 L248.111,45.535 L250.666,45.535 L246.143,62.75 L243.693,62.75 L239.721,48.477 L235.725,62.75 L233.275,62.75 L228.775,45.535 z M259.936,50.545 Q261.189,51.172 261.846,52.168 Q262.479,53.117 262.689,54.383 Q262.877,55.25 262.877,57.148 L253.678,57.148 Q253.736,59.059 254.58,60.213 Q255.424,61.367 257.193,61.367 Q258.846,61.367 259.83,60.277 Q260.393,59.645 260.627,58.812 L262.701,58.812 Q262.619,59.504 262.156,60.354 Q261.693,61.203 261.119,61.742 Q260.158,62.68 258.74,63.008 Q257.979,63.195 257.018,63.195 Q254.674,63.195 253.045,61.49 Q251.416,59.785 251.416,56.715 Q251.416,53.691 253.057,51.805 Q254.697,49.918 257.346,49.918 Q258.682,49.918 259.936,50.545 z M260.709,55.473 Q260.58,54.102 260.111,53.281 Q259.244,51.758 257.217,51.758 Q255.764,51.758 254.779,52.807 Q253.795,53.855 253.736,55.473 z M265.303,45.477 L267.354,45.477 L267.354,51.723 Q268.045,50.82 269.006,50.346 Q269.967,49.871 271.092,49.871 Q273.436,49.871 274.895,51.482 Q276.354,53.094 276.354,56.234 Q276.354,59.211 274.912,61.18 Q273.471,63.148 270.916,63.148 Q269.486,63.148 268.502,62.457 Q267.916,62.047 267.248,61.145 L267.248,62.75 L265.303,62.75 z M273.348,59.926 Q274.197,58.566 274.197,56.34 Q274.197,54.359 273.348,53.059 Q272.498,51.758 270.846,51.758 Q269.404,51.758 268.32,52.824 Q267.236,53.891 267.236,56.34 Q267.236,58.109 267.682,59.211 Q268.514,61.285 270.787,61.285 Q272.498,61.285 273.348,59.926 z M286.566,60.096 Q287.545,58.859 287.545,56.398 Q287.545,54.898 287.111,53.82 Q286.291,51.746 284.111,51.746 Q281.92,51.746 281.111,53.938 Q280.678,55.109 280.678,56.914 Q280.678,58.367 281.111,59.387 Q281.932,61.332 284.111,61.332 Q285.588,61.332 286.566,60.096 z M278.65,50.258 L280.701,50.258 L280.701,51.922 Q281.334,51.066 282.084,50.598 Q283.15,49.895 284.592,49.895 Q286.725,49.895 288.213,51.529 Q289.701,53.164 289.701,56.199 Q289.701,60.301 287.557,62.059 Q286.197,63.172 284.393,63.172 Q282.975,63.172 282.014,62.551 Q281.451,62.199 280.76,61.344 L280.76,67.754 L278.65,67.754 z M294.447,60.852 Q295.115,61.379 296.029,61.379 Q297.143,61.379 298.186,60.863 Q299.943,60.008 299.943,58.062 L299.943,56.363 Q299.557,56.609 298.947,56.773 Q298.338,56.938 297.752,57.008 L296.475,57.172 Q295.326,57.324 294.752,57.652 Q293.779,58.203 293.779,59.41 Q293.779,60.324 294.447,60.852 z M298.889,55.145 Q299.615,55.051 299.861,54.535 Q300.002,54.254 300.002,53.727 Q300.002,52.648 299.234,52.162 Q298.467,51.676 297.037,51.676 Q295.385,51.676 294.693,52.566 Q294.307,53.059 294.189,54.031 L292.221,54.031 Q292.279,51.711 293.727,50.803 Q295.174,49.895 297.084,49.895 Q299.299,49.895 300.682,50.738 Q302.053,51.582 302.053,53.363 L302.053,60.594 Q302.053,60.922 302.188,61.121 Q302.322,61.32 302.756,61.32 Q302.896,61.32 303.072,61.303 Q303.248,61.285 303.447,61.25 L303.447,62.809 Q302.955,62.949 302.697,62.984 Q302.439,63.02 301.994,63.02 Q300.904,63.02 300.412,62.246 Q300.154,61.836 300.049,61.086 Q299.404,61.93 298.197,62.551 Q296.99,63.172 295.537,63.172 Q293.791,63.172 292.684,62.111 Q291.576,61.051 291.576,59.457 Q291.576,57.711 292.666,56.75 Q293.756,55.789 295.525,55.566 z M312.518,50.703 Q313.115,51.113 313.736,51.898 L313.736,50.316 L315.682,50.316 L315.682,61.73 Q315.682,64.121 314.979,65.504 Q313.666,68.059 310.021,68.059 Q307.994,68.059 306.611,67.15 Q305.229,66.242 305.064,64.309 L307.209,64.309 Q307.361,65.152 307.818,65.609 Q308.533,66.312 310.068,66.312 Q312.494,66.312 313.244,64.602 Q313.689,63.594 313.654,61.004 Q313.021,61.965 312.131,62.434 Q311.24,62.902 309.775,62.902 Q307.736,62.902 306.207,61.455 Q304.678,60.008 304.678,56.668 Q304.678,53.516 306.219,51.746 Q307.76,49.977 309.939,49.977 Q311.416,49.977 312.518,50.703 z M312.775,52.965 Q311.814,51.84 310.326,51.84 Q308.1,51.84 307.279,53.926 Q306.846,55.039 306.846,56.844 Q306.846,58.965 307.707,60.072 Q308.568,61.18 310.021,61.18 Q312.295,61.18 313.221,59.129 Q313.736,57.969 313.736,56.422 Q313.736,54.09 312.775,52.965 z M326.674,50.545 Q327.928,51.172 328.584,52.168 Q329.217,53.117 329.428,54.383 Q329.615,55.25 329.615,57.148 L320.416,57.148 Q320.475,59.059 321.318,60.213 Q322.162,61.367 323.932,61.367 Q325.584,61.367 326.568,60.277 Q327.131,59.645 327.365,58.812 L329.439,58.812 Q329.357,59.504 328.895,60.354 Q328.432,61.203 327.857,61.742 Q326.896,62.68 325.479,63.008 Q324.717,63.195 323.756,63.195 Q321.412,63.195 319.783,61.49 Q318.154,59.785 318.154,56.715 Q318.154,53.691 319.795,51.805 Q321.436,49.918 324.084,49.918 Q325.42,49.918 326.674,50.545 z M327.447,55.473 Q327.318,54.102 326.85,53.281 Q325.982,51.758 323.955,51.758 Q322.502,51.758 321.518,52.807 Q320.533,53.855 320.475,55.473 z" fill-opacity="0" stroke="#FFFFFF" stroke-width="1"/>
      </g>
      <path d="M211.5,28.5 L348.5,28.5 L348.5,83 L211.5,83 L211.5,28.5 z" fill-opacity="0" stroke="#80518F" stroke-width="5"/>
    </g>
    <g id="Document">
      <g>
        <text transform="matrix(1, 0, 0, 1, 153.5, 194.75)">
          <tspan x="-55.356" y="7.5" font-family="Helvetica-Light" font-size="24" fill="#FFFFFE">Document</tspan>
        </text>
        <path d="M100.088,202.25 L100.088,184.97 L105.992,184.97 Q106.712,184.97 107.408,185.006 Q108.104,185.042 108.776,185.174 Q109.448,185.306 110.084,185.57 Q110.72,185.834 111.32,186.266 Q112.184,186.89 112.736,187.79 Q113.288,188.69 113.612,189.686 Q113.936,190.682 114.068,191.702 Q114.2,192.722 114.2,193.586 Q114.2,194.45 114.092,195.338 Q113.984,196.226 113.744,197.078 Q113.504,197.93 113.108,198.71 Q112.712,199.49 112.112,200.138 Q111.512,200.81 110.804,201.218 Q110.096,201.626 109.316,201.854 Q108.536,202.082 107.696,202.166 Q106.856,202.25 105.992,202.25 z M101.72,200.858 L105.632,200.858 Q106.736,200.858 107.708,200.726 Q108.68,200.594 109.688,200.066 Q110.552,199.634 111.104,198.89 Q111.656,198.146 111.98,197.27 Q112.304,196.394 112.436,195.434 Q112.568,194.474 112.568,193.586 Q112.568,192.65 112.448,191.678 Q112.328,190.706 111.992,189.83 Q111.656,188.954 111.08,188.222 Q110.504,187.49 109.592,187.01 Q108.824,186.602 107.768,186.482 Q106.712,186.362 105.632,186.362 L101.72,186.362 z M122.144,202.586 Q120.944,202.562 119.9,202.154 Q118.856,201.746 118.076,200.93 Q117.296,200.114 116.84,198.89 Q116.384,197.666 116.384,196.034 Q116.384,194.666 116.744,193.478 Q117.104,192.29 117.824,191.402 Q118.544,190.514 119.624,189.998 Q120.704,189.482 122.144,189.482 Q123.608,189.482 124.688,189.998 Q125.768,190.514 126.488,191.39 Q127.208,192.266 127.556,193.466 Q127.904,194.666 127.904,196.034 Q127.904,197.522 127.496,198.722 Q127.088,199.922 126.332,200.786 Q125.576,201.65 124.508,202.118 Q123.44,202.586 122.144,202.586 z M126.368,196.034 Q126.368,194.93 126.128,193.97 Q125.888,193.01 125.384,192.302 Q124.88,191.594 124.088,191.186 Q123.296,190.778 122.144,190.778 Q121.016,190.778 120.212,191.222 Q119.408,191.666 118.904,192.398 Q118.4,193.13 118.16,194.078 Q117.92,195.026 117.92,196.034 Q117.92,197.186 118.196,198.158 Q118.472,199.13 119,199.826 Q119.528,200.522 120.32,200.906 Q121.112,201.29 122.144,201.29 Q123.272,201.29 124.076,200.846 Q124.88,200.402 125.384,199.658 Q125.888,198.914 126.128,197.978 Q126.368,197.042 126.368,196.034 z M139.352,193.73 Q138.968,192.338 138.032,191.558 Q137.096,190.778 135.656,190.778 Q134.552,190.778 133.76,191.234 Q132.968,191.69 132.464,192.446 Q131.96,193.202 131.72,194.15 Q131.48,195.098 131.48,196.058 Q131.48,197.042 131.708,197.978 Q131.936,198.914 132.44,199.658 Q132.944,200.402 133.736,200.846 Q134.528,201.29 135.656,201.29 Q137.264,201.29 138.236,200.402 Q139.208,199.514 139.472,197.954 L141.008,197.954 Q140.816,198.986 140.396,199.838 Q139.976,200.69 139.316,201.302 Q138.656,201.914 137.744,202.25 Q136.832,202.586 135.656,202.586 Q134.168,202.586 133.088,202.082 Q132.008,201.578 131.312,200.702 Q130.616,199.826 130.28,198.626 Q129.944,197.426 129.944,196.058 Q129.944,194.762 130.316,193.574 Q130.688,192.386 131.408,191.474 Q132.128,190.562 133.196,190.022 Q134.264,189.482 135.656,189.482 Q137.816,189.482 139.148,190.514 Q140.48,191.546 140.816,193.73 z M152.312,189.818 L153.752,189.818 L153.752,202.25 L152.312,202.25 L152.312,200.522 Q152.024,200.858 151.664,201.218 Q151.304,201.578 150.836,201.878 Q150.368,202.178 149.744,202.382 Q149.12,202.586 148.304,202.586 Q147.056,202.586 146.216,202.238 Q145.376,201.89 144.86,201.266 Q144.344,200.642 144.116,199.814 Q143.888,198.986 143.888,198.002 L143.888,189.818 L145.328,189.818 L145.328,197.978 Q145.328,199.586 146.072,200.438 Q146.816,201.29 148.52,201.29 Q149.408,201.29 150.116,200.942 Q150.824,200.594 151.304,199.97 Q151.784,199.346 152.048,198.482 Q152.312,197.618 152.312,196.586 z M158.48,202.25 L157.04,202.25 L157.04,189.818 L158.48,189.818 L158.48,191.69 L158.528,191.69 Q159.08,190.61 160.112,190.046 Q161.144,189.482 162.368,189.482 Q163.232,189.482 163.832,189.674 Q164.432,189.866 164.852,190.19 Q165.272,190.514 165.548,190.946 Q165.824,191.378 166.016,191.882 Q166.64,190.658 167.684,190.07 Q168.728,189.482 170.072,189.482 Q171.344,189.482 172.1,189.902 Q172.856,190.322 173.264,191.006 Q173.672,191.69 173.804,192.578 Q173.936,193.466 173.936,194.402 L173.936,202.25 L172.496,202.25 L172.496,193.658 Q172.496,192.314 171.932,191.546 Q171.368,190.778 169.832,190.778 Q169.04,190.778 168.308,191.126 Q167.576,191.474 167.024,192.194 Q166.784,192.506 166.628,192.926 Q166.472,193.346 166.376,193.802 Q166.28,194.258 166.244,194.714 Q166.208,195.17 166.208,195.554 L166.208,202.25 L164.768,202.25 L164.768,193.658 Q164.768,192.314 164.204,191.546 Q163.64,190.778 162.104,190.778 Q161.312,190.778 160.58,191.126 Q159.848,191.474 159.296,192.194 Q159.056,192.506 158.9,192.926 Q158.744,193.346 158.648,193.802 Q158.552,194.258 158.516,194.714 Q158.48,195.17 158.48,195.554 z M186.224,195.17 Q186.224,194.258 185.972,193.454 Q185.72,192.65 185.228,192.062 Q184.736,191.474 183.992,191.126 Q183.248,190.778 182.288,190.778 Q181.328,190.778 180.596,191.138 Q179.864,191.498 179.348,192.098 Q178.832,192.698 178.52,193.49 Q178.208,194.282 178.112,195.17 z M178.112,196.37 Q178.112,197.378 178.376,198.278 Q178.64,199.178 179.156,199.838 Q179.672,200.498 180.464,200.894 Q181.256,201.29 182.288,201.29 Q183.704,201.29 184.712,200.546 Q185.72,199.802 186.056,198.434 L187.664,198.434 Q187.4,199.322 186.968,200.078 Q186.536,200.834 185.888,201.398 Q185.24,201.962 184.352,202.274 Q183.464,202.586 182.288,202.586 Q180.8,202.586 179.72,202.082 Q178.64,201.578 177.944,200.702 Q177.248,199.826 176.912,198.638 Q176.576,197.45 176.576,196.082 Q176.576,194.714 176.972,193.514 Q177.368,192.314 178.1,191.414 Q178.832,190.514 179.888,189.998 Q180.944,189.482 182.288,189.482 Q184.856,189.482 186.32,191.246 Q187.784,193.01 187.76,196.37 z M192.008,202.25 L190.568,202.25 L190.568,189.818 L192.008,189.818 L192.008,191.546 Q192.872,190.634 193.796,190.058 Q194.72,189.482 196.016,189.482 Q197.168,189.482 198.152,189.878 Q199.136,190.274 199.808,191.258 Q200.264,191.93 200.348,192.638 Q200.432,193.346 200.432,194.114 L200.432,202.25 L198.992,202.25 L198.992,194.138 Q198.992,192.458 198.248,191.618 Q197.504,190.778 195.776,190.778 Q195.104,190.778 194.552,190.982 Q194,191.186 193.556,191.522 Q193.112,191.858 192.8,192.29 Q192.488,192.722 192.32,193.202 Q192.104,193.802 192.056,194.354 Q192.008,194.906 192.008,195.554 z M208.28,202.298 Q208.016,202.346 207.584,202.466 Q207.152,202.586 206.624,202.586 Q205.544,202.586 204.98,202.046 Q204.416,201.506 204.416,200.114 L204.416,191.018 L202.664,191.018 L202.664,189.818 L204.416,189.818 L204.416,186.362 L205.856,186.362 L205.856,189.818 L208.184,189.818 L208.184,191.018 L205.856,191.018 L205.856,199.538 Q205.856,199.994 205.88,200.33 Q205.904,200.666 206.024,200.882 Q206.144,201.098 206.396,201.194 Q206.648,201.29 207.104,201.29 Q207.392,201.29 207.692,201.242 Q207.992,201.194 208.28,201.122 z" fill-opacity="0" stroke="#FFFFFF" stroke-width="1"/>
      </g>
      <path d="M85.5,168 L222.5,168 L222.5,222.5 L85.5,222.5 L85.5,168 z" fill-opacity="0" stroke="#4E5F99" stroke-width="5"/>
    </g>
    <g id="Document">
      <g>
        <text transform="matrix(1, 0, 0, 1, 408.436, 194.625)">
          <tspan x="-40.432" y="-6.375" font-family="Helvetica-Light" font-size="15" fill="#FFFFFE">Code, Data, </tspan>
          <tspan x="-32.513" y="11.625" font-family="Helvetica-Light" font-size="15" fill="#FFFFFE">other files</tspan>
        </text>
        <path d="M376.884,180.585 Q376.569,179.205 375.714,178.62 Q374.859,178.035 373.479,178.035 Q372.504,178.035 371.799,178.425 Q371.094,178.815 370.636,179.475 Q370.179,180.135 369.961,180.997 Q369.744,181.86 369.744,182.82 Q369.744,183.72 369.931,184.59 Q370.119,185.46 370.554,186.143 Q370.989,186.825 371.724,187.245 Q372.459,187.665 373.569,187.665 Q374.259,187.665 374.829,187.44 Q375.399,187.215 375.826,186.818 Q376.254,186.42 376.546,185.88 Q376.839,185.34 376.989,184.695 L378.054,184.695 Q377.874,185.475 377.529,186.173 Q377.184,186.87 376.621,187.395 Q376.059,187.92 375.256,188.227 Q374.454,188.535 373.374,188.535 Q372.129,188.535 371.244,188.077 Q370.359,187.62 369.796,186.84 Q369.234,186.06 368.979,185.033 Q368.724,184.005 368.724,182.85 Q368.724,181.305 369.106,180.225 Q369.489,179.145 370.164,178.462 Q370.839,177.78 371.754,177.473 Q372.669,177.165 373.749,177.165 Q374.574,177.165 375.286,177.383 Q375.999,177.6 376.546,178.035 Q377.094,178.47 377.446,179.107 Q377.799,179.745 377.934,180.585 z M383.004,188.46 Q382.254,188.445 381.601,188.19 Q380.949,187.935 380.461,187.425 Q379.974,186.915 379.689,186.15 Q379.404,185.385 379.404,184.365 Q379.404,183.51 379.629,182.768 Q379.854,182.025 380.304,181.47 Q380.754,180.915 381.429,180.592 Q382.104,180.27 383.004,180.27 Q383.919,180.27 384.594,180.592 Q385.269,180.915 385.719,181.462 Q386.169,182.01 386.386,182.76 Q386.604,183.51 386.604,184.365 Q386.604,185.295 386.349,186.045 Q386.094,186.795 385.621,187.335 Q385.149,187.875 384.481,188.167 Q383.814,188.46 383.004,188.46 z M385.644,184.365 Q385.644,183.675 385.494,183.075 Q385.344,182.475 385.029,182.033 Q384.714,181.59 384.219,181.335 Q383.724,181.08 383.004,181.08 Q382.299,181.08 381.796,181.357 Q381.294,181.635 380.979,182.092 Q380.664,182.55 380.514,183.143 Q380.364,183.735 380.364,184.365 Q380.364,185.085 380.536,185.693 Q380.709,186.3 381.039,186.735 Q381.369,187.17 381.864,187.41 Q382.359,187.65 383.004,187.65 Q383.709,187.65 384.211,187.372 Q384.714,187.095 385.029,186.63 Q385.344,186.165 385.494,185.58 Q385.644,184.995 385.644,184.365 z M394.254,184.335 Q394.254,183.675 394.074,183.083 Q393.894,182.49 393.556,182.048 Q393.219,181.605 392.731,181.342 Q392.244,181.08 391.629,181.08 Q390.924,181.08 390.414,181.357 Q389.904,181.635 389.574,182.115 Q389.244,182.595 389.094,183.232 Q388.944,183.87 388.974,184.605 Q388.974,185.34 389.176,185.902 Q389.379,186.465 389.739,186.855 Q390.099,187.245 390.579,187.447 Q391.059,187.65 391.629,187.65 Q392.259,187.65 392.754,187.395 Q393.249,187.14 393.579,186.697 Q393.909,186.255 394.081,185.648 Q394.254,185.04 394.254,184.335 z M394.254,177.45 L395.154,177.45 L395.154,188.25 L394.254,188.25 L394.254,186.885 L394.224,186.885 Q394.029,187.275 393.721,187.568 Q393.414,187.86 393.046,188.055 Q392.679,188.25 392.289,188.355 Q391.899,188.46 391.524,188.46 Q390.579,188.46 389.919,188.145 Q389.259,187.83 388.831,187.283 Q388.404,186.735 388.209,185.985 Q388.014,185.235 388.014,184.38 Q388.014,183.57 388.224,182.82 Q388.434,182.07 388.861,181.508 Q389.289,180.945 389.941,180.607 Q390.594,180.27 391.479,180.27 Q392.304,180.27 393.061,180.637 Q393.819,181.005 394.254,181.725 z M403.044,183.825 Q403.044,183.255 402.886,182.753 Q402.729,182.25 402.421,181.883 Q402.114,181.515 401.649,181.298 Q401.184,181.08 400.584,181.08 Q399.984,181.08 399.526,181.305 Q399.069,181.53 398.746,181.905 Q398.424,182.28 398.229,182.775 Q398.034,183.27 397.974,183.825 z M397.974,184.575 Q397.974,185.205 398.139,185.768 Q398.304,186.33 398.626,186.742 Q398.949,187.155 399.444,187.402 Q399.939,187.65 400.584,187.65 Q401.469,187.65 402.099,187.185 Q402.729,186.72 402.939,185.865 L403.944,185.865 Q403.779,186.42 403.509,186.893 Q403.239,187.365 402.834,187.717 Q402.429,188.07 401.874,188.265 Q401.319,188.46 400.584,188.46 Q399.654,188.46 398.979,188.145 Q398.304,187.83 397.869,187.283 Q397.434,186.735 397.224,185.992 Q397.014,185.25 397.014,184.395 Q397.014,183.54 397.261,182.79 Q397.509,182.04 397.966,181.477 Q398.424,180.915 399.084,180.592 Q399.744,180.27 400.584,180.27 Q402.189,180.27 403.104,181.372 Q404.019,182.475 404.004,184.575 z M407.304,188.7 Q407.304,189.36 406.996,189.758 Q406.689,190.155 406.209,190.305 L406.209,189.75 Q406.389,189.63 406.554,189.42 Q406.719,189.21 406.719,188.76 L406.719,188.25 L406.209,188.25 L406.209,186.93 L407.304,186.93 z M414.234,188.25 L414.234,177.45 L417.924,177.45 Q418.374,177.45 418.809,177.473 Q419.244,177.495 419.664,177.577 Q420.084,177.66 420.481,177.825 Q420.879,177.99 421.254,178.26 Q421.794,178.65 422.139,179.212 Q422.484,179.775 422.686,180.398 Q422.889,181.02 422.971,181.658 Q423.054,182.295 423.054,182.835 Q423.054,183.375 422.986,183.93 Q422.919,184.485 422.769,185.018 Q422.619,185.55 422.371,186.038 Q422.124,186.525 421.749,186.93 Q421.374,187.35 420.931,187.605 Q420.489,187.86 420.001,188.003 Q419.514,188.145 418.989,188.197 Q418.464,188.25 417.924,188.25 z M415.254,187.38 L417.699,187.38 Q418.389,187.38 418.996,187.298 Q419.604,187.215 420.234,186.885 Q420.774,186.615 421.119,186.15 Q421.464,185.685 421.666,185.137 Q421.869,184.59 421.951,183.99 Q422.034,183.39 422.034,182.835 Q422.034,182.25 421.959,181.643 Q421.884,181.035 421.674,180.488 Q421.464,179.94 421.104,179.482 Q420.744,179.025 420.174,178.725 Q419.694,178.47 419.034,178.395 Q418.374,178.32 417.699,178.32 L415.254,178.32 z M430.014,184.17 Q429.444,184.41 428.859,184.485 Q428.274,184.56 427.689,184.605 Q426.654,184.68 426.076,185.07 Q425.499,185.46 425.499,186.255 Q425.499,186.615 425.641,186.878 Q425.784,187.14 426.016,187.312 Q426.249,187.485 426.556,187.568 Q426.864,187.65 427.179,187.65 Q427.719,187.65 428.229,187.515 Q428.739,187.38 429.136,187.102 Q429.534,186.825 429.774,186.398 Q430.014,185.97 430.014,185.385 z M428.499,183.72 Q428.754,183.69 429.106,183.63 Q429.459,183.57 429.684,183.465 Q429.909,183.36 429.961,183.113 Q430.014,182.865 430.014,182.655 Q430.014,181.965 429.571,181.523 Q429.129,181.08 428.079,181.08 Q427.614,181.08 427.224,181.163 Q426.834,181.245 426.541,181.447 Q426.249,181.65 426.061,181.988 Q425.874,182.325 425.814,182.835 L424.899,182.835 Q424.944,182.145 425.214,181.658 Q425.484,181.17 425.911,180.863 Q426.339,180.555 426.901,180.413 Q427.464,180.27 428.094,180.27 Q428.679,180.27 429.196,180.398 Q429.714,180.525 430.096,180.803 Q430.479,181.08 430.696,181.545 Q430.914,182.01 430.914,182.685 L430.914,186.915 Q430.914,187.44 431.101,187.583 Q431.289,187.725 431.859,187.515 L431.859,188.22 Q431.754,188.25 431.551,188.31 Q431.349,188.37 431.154,188.37 Q430.944,188.37 430.749,188.325 Q430.524,188.295 430.389,188.182 Q430.254,188.07 430.171,187.913 Q430.089,187.755 430.059,187.568 Q430.029,187.38 430.029,187.17 Q429.459,187.8 428.724,188.13 Q427.989,188.46 427.134,188.46 Q426.624,188.46 426.151,188.325 Q425.679,188.19 425.319,187.905 Q424.959,187.62 424.749,187.208 Q424.539,186.795 424.539,186.225 Q424.539,184.245 427.254,183.885 z M435.999,188.28 Q435.834,188.31 435.564,188.385 Q435.294,188.46 434.964,188.46 Q434.289,188.46 433.936,188.122 Q433.584,187.785 433.584,186.915 L433.584,181.23 L432.489,181.23 L432.489,180.48 L433.584,180.48 L433.584,178.32 L434.484,178.32 L434.484,180.48 L435.939,180.48 L435.939,181.23 L434.484,181.23 L434.484,186.555 Q434.484,186.84 434.499,187.05 Q434.514,187.26 434.589,187.395 Q434.664,187.53 434.821,187.59 Q434.979,187.65 435.264,187.65 Q435.444,187.65 435.631,187.62 Q435.819,187.59 435.999,187.545 z M442.524,184.17 Q441.954,184.41 441.369,184.485 Q440.784,184.56 440.199,184.605 Q439.164,184.68 438.586,185.07 Q438.009,185.46 438.009,186.255 Q438.009,186.615 438.151,186.878 Q438.294,187.14 438.526,187.312 Q438.759,187.485 439.066,187.568 Q439.374,187.65 439.689,187.65 Q440.229,187.65 440.739,187.515 Q441.249,187.38 441.646,187.102 Q442.044,186.825 442.284,186.398 Q442.524,185.97 442.524,185.385 z M441.009,183.72 Q441.264,183.69 441.616,183.63 Q441.969,183.57 442.194,183.465 Q442.419,183.36 442.471,183.113 Q442.524,182.865 442.524,182.655 Q442.524,181.965 442.081,181.523 Q441.639,181.08 440.589,181.08 Q440.124,181.08 439.734,181.163 Q439.344,181.245 439.051,181.447 Q438.759,181.65 438.571,181.988 Q438.384,182.325 438.324,182.835 L437.409,182.835 Q437.454,182.145 437.724,181.658 Q437.994,181.17 438.421,180.863 Q438.849,180.555 439.411,180.413 Q439.974,180.27 440.604,180.27 Q441.189,180.27 441.706,180.398 Q442.224,180.525 442.606,180.803 Q442.989,181.08 443.206,181.545 Q443.424,182.01 443.424,182.685 L443.424,186.915 Q443.424,187.44 443.611,187.583 Q443.799,187.725 444.369,187.515 L444.369,188.22 Q444.264,188.25 444.061,188.31 Q443.859,188.37 443.664,188.37 Q443.454,188.37 443.259,188.325 Q443.034,188.295 442.899,188.182 Q442.764,188.07 442.681,187.913 Q442.599,187.755 442.569,187.568 Q442.539,187.38 442.539,187.17 Q441.969,187.8 441.234,188.13 Q440.499,188.46 439.644,188.46 Q439.134,188.46 438.661,188.325 Q438.189,188.19 437.829,187.905 Q437.469,187.62 437.259,187.208 Q437.049,186.795 437.049,186.225 Q437.049,184.245 439.764,183.885 z M447.324,188.7 Q447.324,189.36 447.016,189.758 Q446.709,190.155 446.229,190.305 L446.229,189.75 Q446.409,189.63 446.574,189.42 Q446.739,189.21 446.739,188.76 L446.739,188.25 L446.229,188.25 L446.229,186.93 L447.324,186.93 z M380.094,206.46 Q379.344,206.445 378.691,206.19 Q378.039,205.935 377.551,205.425 Q377.064,204.915 376.779,204.15 Q376.494,203.385 376.494,202.365 Q376.494,201.51 376.719,200.768 Q376.944,200.025 377.394,199.47 Q377.844,198.915 378.519,198.592 Q379.194,198.27 380.094,198.27 Q381.009,198.27 381.684,198.592 Q382.359,198.915 382.809,199.462 Q383.259,200.01 383.476,200.76 Q383.694,201.51 383.694,202.365 Q383.694,203.295 383.439,204.045 Q383.184,204.795 382.711,205.335 Q382.239,205.875 381.571,206.167 Q380.904,206.46 380.094,206.46 z M382.734,202.365 Q382.734,201.675 382.584,201.075 Q382.434,200.475 382.119,200.033 Q381.804,199.59 381.309,199.335 Q380.814,199.08 380.094,199.08 Q379.389,199.08 378.886,199.357 Q378.384,199.635 378.069,200.092 Q377.754,200.55 377.604,201.143 Q377.454,201.735 377.454,202.365 Q377.454,203.085 377.626,203.693 Q377.799,204.3 378.129,204.735 Q378.459,205.17 378.954,205.41 Q379.449,205.65 380.094,205.65 Q380.799,205.65 381.301,205.372 Q381.804,205.095 382.119,204.63 Q382.434,204.165 382.584,203.58 Q382.734,202.995 382.734,202.365 z M388.074,206.28 Q387.909,206.31 387.639,206.385 Q387.369,206.46 387.039,206.46 Q386.364,206.46 386.011,206.122 Q385.659,205.785 385.659,204.915 L385.659,199.23 L384.564,199.23 L384.564,198.48 L385.659,198.48 L385.659,196.32 L386.559,196.32 L386.559,198.48 L388.014,198.48 L388.014,199.23 L386.559,199.23 L386.559,204.555 Q386.559,204.84 386.574,205.05 Q386.589,205.26 386.664,205.395 Q386.739,205.53 386.896,205.59 Q387.054,205.65 387.339,205.65 Q387.519,205.65 387.706,205.62 Q387.894,205.59 388.074,205.545 z M389.514,206.25 L389.514,195.45 L390.414,195.45 L390.414,199.56 Q390.954,198.99 391.531,198.63 Q392.109,198.27 392.919,198.27 Q393.639,198.27 394.254,198.518 Q394.869,198.765 395.289,199.38 Q395.574,199.8 395.626,200.242 Q395.679,200.685 395.679,201.165 L395.679,206.25 L394.779,206.25 L394.779,201.18 Q394.779,200.13 394.314,199.605 Q393.849,199.08 392.769,199.08 Q392.349,199.08 392.004,199.208 Q391.659,199.335 391.381,199.545 Q391.104,199.755 390.909,200.025 Q390.714,200.295 390.609,200.595 Q390.474,200.97 390.444,201.315 Q390.414,201.66 390.414,202.065 L390.414,206.25 z M403.479,201.825 Q403.479,201.255 403.321,200.753 Q403.164,200.25 402.856,199.883 Q402.549,199.515 402.084,199.298 Q401.619,199.08 401.019,199.08 Q400.419,199.08 399.961,199.305 Q399.504,199.53 399.181,199.905 Q398.859,200.28 398.664,200.775 Q398.469,201.27 398.409,201.825 z M398.409,202.575 Q398.409,203.205 398.574,203.768 Q398.739,204.33 399.061,204.742 Q399.384,205.155 399.879,205.402 Q400.374,205.65 401.019,205.65 Q401.904,205.65 402.534,205.185 Q403.164,204.72 403.374,203.865 L404.379,203.865 Q404.214,204.42 403.944,204.893 Q403.674,205.365 403.269,205.717 Q402.864,206.07 402.309,206.265 Q401.754,206.46 401.019,206.46 Q400.089,206.46 399.414,206.145 Q398.739,205.83 398.304,205.283 Q397.869,204.735 397.659,203.992 Q397.449,203.25 397.449,202.395 Q397.449,201.54 397.696,200.79 Q397.944,200.04 398.401,199.477 Q398.859,198.915 399.519,198.592 Q400.179,198.27 401.019,198.27 Q402.624,198.27 403.539,199.372 Q404.454,200.475 404.439,202.575 z M407.139,206.25 L406.239,206.25 L406.239,198.48 L407.139,198.48 L407.139,199.935 L407.169,199.935 Q407.544,199.005 408.136,198.637 Q408.729,198.27 409.704,198.27 L409.704,199.245 Q408.939,199.23 408.444,199.485 Q407.949,199.74 407.656,200.175 Q407.364,200.61 407.251,201.202 Q407.139,201.795 407.139,202.44 z M414.474,199.23 L414.474,198.48 L415.659,198.48 L415.659,197.25 Q415.659,196.32 416.034,195.78 Q416.409,195.24 417.309,195.24 Q417.519,195.24 417.699,195.255 Q417.879,195.27 418.059,195.3 L418.059,196.125 Q417.759,196.05 417.519,196.05 Q417.174,196.05 416.979,196.178 Q416.784,196.305 416.694,196.515 Q416.604,196.725 416.581,196.988 Q416.559,197.25 416.559,197.52 L416.559,198.48 L418.029,198.48 L418.029,199.23 L416.559,199.23 L416.559,206.25 L415.659,206.25 L415.659,199.23 z M419.859,206.25 L419.859,198.48 L420.759,198.48 L420.759,206.25 z M420.804,196.785 L419.814,196.785 L419.814,195.45 L420.804,195.45 z M422.994,206.25 L422.994,195.45 L423.894,195.45 L423.894,206.25 z M431.814,201.825 Q431.814,201.255 431.656,200.753 Q431.499,200.25 431.191,199.883 Q430.884,199.515 430.419,199.298 Q429.954,199.08 429.354,199.08 Q428.754,199.08 428.296,199.305 Q427.839,199.53 427.516,199.905 Q427.194,200.28 426.999,200.775 Q426.804,201.27 426.744,201.825 z M426.744,202.575 Q426.744,203.205 426.909,203.768 Q427.074,204.33 427.396,204.742 Q427.719,205.155 428.214,205.402 Q428.709,205.65 429.354,205.65 Q430.239,205.65 430.869,205.185 Q431.499,204.72 431.709,203.865 L432.714,203.865 Q432.549,204.42 432.279,204.893 Q432.009,205.365 431.604,205.717 Q431.199,206.07 430.644,206.265 Q430.089,206.46 429.354,206.46 Q428.424,206.46 427.749,206.145 Q427.074,205.83 426.639,205.283 Q426.204,204.735 425.994,203.992 Q425.784,203.25 425.784,202.395 Q425.784,201.54 426.031,200.79 Q426.279,200.04 426.736,199.477 Q427.194,198.915 427.854,198.592 Q428.514,198.27 429.354,198.27 Q430.959,198.27 431.874,199.372 Q432.789,200.475 432.774,202.575 z M435.054,203.82 Q435.264,204.825 435.811,205.238 Q436.359,205.65 437.379,205.65 Q437.874,205.65 438.234,205.53 Q438.594,205.41 438.826,205.208 Q439.059,205.005 439.179,204.75 Q439.299,204.495 439.299,204.21 Q439.299,203.64 438.931,203.363 Q438.564,203.085 438.009,202.928 Q437.454,202.77 436.809,202.658 Q436.164,202.545 435.609,202.32 Q435.054,202.095 434.686,201.675 Q434.319,201.255 434.319,200.49 Q434.319,199.515 435.031,198.893 Q435.744,198.27 437.049,198.27 Q438.309,198.27 439.096,198.833 Q439.884,199.395 440.049,200.715 L439.134,200.715 Q439.014,199.815 438.451,199.447 Q437.889,199.08 437.034,199.08 Q436.179,199.08 435.729,199.447 Q435.279,199.815 435.279,200.415 Q435.279,200.94 435.646,201.217 Q436.014,201.495 436.569,201.667 Q437.124,201.84 437.769,201.975 Q438.414,202.11 438.969,202.357 Q439.524,202.605 439.891,203.025 Q440.259,203.445 440.259,204.195 Q440.259,204.75 440.019,205.178 Q439.779,205.605 439.359,205.89 Q438.939,206.175 438.361,206.318 Q437.784,206.46 437.094,206.46 Q436.404,206.46 435.871,206.258 Q435.339,206.055 434.964,205.695 Q434.589,205.335 434.379,204.855 Q434.169,204.375 434.139,203.82 z" fill-opacity="0" stroke="#FFFFFF" stroke-width="1"/>
      </g>
      <path d="M340.436,168 L477.436,168 L477.436,222.5 L340.436,222.5 L340.436,168 z" fill-opacity="0" stroke="#984F4F" stroke-width="5"/>
    </g>
    <g id="GitHub">
      <g>
        <text transform="matrix(1, 0, 0, 1, 279.5, 149.75)">
          <tspan x="-37.348" y="7.5" font-family="Helvetica" font-size="24" fill="#FFFFFE">GitHub</tspan>
        </text>
        <path d="M255.617,140.527 Q258.184,141.875 258.758,145.25 L256.449,145.25 Q256.027,143.363 254.703,142.502 Q253.379,141.641 251.363,141.641 Q248.973,141.641 247.338,143.434 Q245.703,145.227 245.703,148.777 Q245.703,151.848 247.051,153.775 Q248.398,155.703 251.445,155.703 Q253.777,155.703 255.307,154.35 Q256.836,152.996 256.871,149.973 L251.48,149.973 L251.48,148.039 L259.039,148.039 L259.039,157.25 L257.539,157.25 L256.977,155.035 Q255.793,156.336 254.879,156.84 Q253.344,157.707 250.977,157.707 Q247.918,157.707 245.715,155.727 Q243.312,153.242 243.312,148.906 Q243.312,144.582 245.656,142.027 Q247.883,139.59 251.422,139.59 Q253.848,139.59 255.617,140.527 z M262.367,144.758 L264.512,144.758 L264.512,157.25 L262.367,157.25 z M262.367,140.035 L264.512,140.035 L264.512,142.426 L262.367,142.426 z M268.121,141.195 L270.254,141.195 L270.254,144.699 L272.258,144.699 L272.258,146.422 L270.254,146.422 L270.254,154.613 Q270.254,155.27 270.699,155.492 Q270.945,155.621 271.52,155.621 Q271.672,155.621 271.848,155.615 Q272.023,155.609 272.258,155.586 L272.258,157.25 Q271.895,157.355 271.502,157.402 Q271.109,157.449 270.652,157.449 Q269.176,157.449 268.648,156.693 Q268.121,155.938 268.121,154.73 L268.121,146.422 L266.422,146.422 L266.422,144.699 L268.121,144.699 z M274.707,140.035 L277.062,140.035 L277.062,147.148 L286.016,147.148 L286.016,140.035 L288.371,140.035 L288.371,157.25 L286.016,157.25 L286.016,149.199 L277.062,149.199 L277.062,157.25 L274.707,157.25 z M293.809,144.699 L293.809,153.031 Q293.809,153.992 294.113,154.602 Q294.676,155.727 296.211,155.727 Q298.414,155.727 299.211,153.758 Q299.645,152.703 299.645,150.863 L299.645,144.699 L301.754,144.699 L301.754,157.25 L299.762,157.25 L299.785,155.398 Q299.375,156.113 298.766,156.605 Q297.559,157.59 295.836,157.59 Q293.152,157.59 292.18,155.797 Q291.652,154.836 291.652,153.23 L291.652,144.699 z M304.883,139.977 L306.934,139.977 L306.934,146.223 Q307.625,145.32 308.586,144.846 Q309.547,144.371 310.672,144.371 Q313.016,144.371 314.475,145.982 Q315.934,147.594 315.934,150.734 Q315.934,153.711 314.492,155.68 Q313.051,157.648 310.496,157.648 Q309.066,157.648 308.082,156.957 Q307.496,156.547 306.828,155.645 L306.828,157.25 L304.883,157.25 z M312.928,154.426 Q313.777,153.066 313.777,150.84 Q313.777,148.859 312.928,147.559 Q312.078,146.258 310.426,146.258 Q308.984,146.258 307.9,147.324 Q306.816,148.391 306.816,150.84 Q306.816,152.609 307.262,153.711 Q308.094,155.785 310.367,155.785 Q312.078,155.785 312.928,154.426 z" fill-opacity="0" stroke="#FFFFFF" stroke-width="1"/>
      </g>
      <path d="M211.5,123 L348.5,123 L348.5,177.5 L211.5,177.5 L211.5,123 z" fill-opacity="0" stroke="#80518F" stroke-width="5"/>
    </g>
    <g id="doc_types">
      <g id="MD">
        <g>
          <text transform="matrix(1, 0, 0, 1, 95.5, 298.75)">
            <tspan x="-49.004" y="4.5" font-family="Helvetica-Light" font-size="21" fill="#FFFFFE">Markdown</tspan>
          </text>
          <path d="M48.134,303.25 L48.134,288.13 L50.318,288.13 L55.274,301.465 L55.316,301.465 L60.188,288.13 L62.351,288.13 L62.351,303.25 L60.923,303.25 L60.923,289.768 L60.881,289.768 L55.925,303.25 L54.581,303.25 L49.604,289.768 L49.562,289.768 L49.562,303.25 z M72.62,297.538 Q71.822,297.874 71.003,297.979 Q70.184,298.084 69.365,298.147 Q67.916,298.252 67.108,298.798 Q66.299,299.344 66.299,300.457 Q66.299,300.961 66.499,301.328 Q66.698,301.696 67.024,301.938 Q67.349,302.179 67.78,302.294 Q68.21,302.41 68.651,302.41 Q69.407,302.41 70.121,302.221 Q70.835,302.032 71.392,301.643 Q71.948,301.255 72.284,300.656 Q72.62,300.058 72.62,299.239 z M70.499,296.908 Q70.856,296.866 71.35,296.782 Q71.843,296.698 72.158,296.551 Q72.473,296.404 72.547,296.057 Q72.62,295.711 72.62,295.417 Q72.62,294.451 72.001,293.831 Q71.381,293.212 69.911,293.212 Q69.26,293.212 68.714,293.327 Q68.168,293.443 67.759,293.727 Q67.349,294.01 67.087,294.482 Q66.824,294.955 66.74,295.669 L65.459,295.669 Q65.522,294.703 65.9,294.021 Q66.278,293.338 66.877,292.908 Q67.475,292.477 68.263,292.277 Q69.05,292.078 69.932,292.078 Q70.751,292.078 71.476,292.257 Q72.2,292.435 72.736,292.823 Q73.271,293.212 73.576,293.863 Q73.88,294.514 73.88,295.459 L73.88,301.381 Q73.88,302.116 74.143,302.315 Q74.405,302.515 75.203,302.221 L75.203,303.208 Q75.056,303.25 74.773,303.334 Q74.489,303.418 74.216,303.418 Q73.922,303.418 73.649,303.355 Q73.334,303.313 73.145,303.155 Q72.956,302.998 72.841,302.777 Q72.725,302.557 72.683,302.294 Q72.641,302.032 72.641,301.738 Q71.843,302.62 70.814,303.082 Q69.785,303.544 68.588,303.544 Q67.874,303.544 67.213,303.355 Q66.551,303.166 66.047,302.767 Q65.543,302.368 65.249,301.79 Q64.955,301.213 64.955,300.415 Q64.955,297.643 68.756,297.139 z M78.5,303.25 L77.24,303.25 L77.24,292.372 L78.5,292.372 L78.5,294.409 L78.542,294.409 Q79.067,293.107 79.897,292.592 Q80.726,292.078 82.091,292.078 L82.091,293.443 Q81.02,293.422 80.327,293.779 Q79.634,294.136 79.225,294.745 Q78.815,295.354 78.658,296.184 Q78.5,297.013 78.5,297.916 z M84.086,303.25 L84.086,288.13 L85.346,288.13 L85.346,297.538 L90.68,292.372 L92.402,292.372 L88.328,296.299 L92.885,303.25 L91.478,303.25 L87.404,297.181 L85.346,299.134 L85.346,303.25 z M103.07,297.769 Q103.07,296.845 102.818,296.016 Q102.566,295.186 102.094,294.566 Q101.621,293.947 100.939,293.579 Q100.256,293.212 99.395,293.212 Q98.408,293.212 97.694,293.6 Q96.98,293.989 96.518,294.661 Q96.056,295.333 95.846,296.225 Q95.636,297.118 95.678,298.147 Q95.678,299.176 95.962,299.964 Q96.245,300.751 96.749,301.297 Q97.253,301.843 97.925,302.126 Q98.597,302.41 99.395,302.41 Q100.277,302.41 100.97,302.053 Q101.663,301.696 102.125,301.077 Q102.587,300.457 102.829,299.607 Q103.07,298.756 103.07,297.769 z M103.07,288.13 L104.33,288.13 L104.33,303.25 L103.07,303.25 L103.07,301.339 L103.028,301.339 Q102.755,301.885 102.325,302.294 Q101.894,302.704 101.38,302.977 Q100.865,303.25 100.319,303.397 Q99.773,303.544 99.248,303.544 Q97.925,303.544 97.001,303.103 Q96.077,302.662 95.479,301.896 Q94.88,301.129 94.607,300.079 Q94.334,299.029 94.334,297.832 Q94.334,296.698 94.628,295.648 Q94.922,294.598 95.521,293.81 Q96.119,293.023 97.033,292.551 Q97.946,292.078 99.185,292.078 Q100.34,292.078 101.401,292.592 Q102.461,293.107 103.07,294.115 z M111.827,303.544 Q110.777,303.523 109.864,303.166 Q108.95,302.809 108.268,302.095 Q107.585,301.381 107.186,300.31 Q106.787,299.239 106.787,297.811 Q106.787,296.614 107.102,295.574 Q107.417,294.535 108.047,293.758 Q108.677,292.981 109.622,292.529 Q110.567,292.078 111.827,292.078 Q113.108,292.078 114.053,292.529 Q114.998,292.981 115.628,293.747 Q116.258,294.514 116.563,295.564 Q116.867,296.614 116.867,297.811 Q116.867,299.113 116.51,300.163 Q116.153,301.213 115.492,301.969 Q114.83,302.725 113.896,303.134 Q112.961,303.544 111.827,303.544 z M115.523,297.811 Q115.523,296.845 115.313,296.005 Q115.103,295.165 114.662,294.546 Q114.221,293.926 113.528,293.569 Q112.835,293.212 111.827,293.212 Q110.84,293.212 110.137,293.6 Q109.433,293.989 108.992,294.629 Q108.551,295.27 108.341,296.099 Q108.131,296.929 108.131,297.811 Q108.131,298.819 108.373,299.669 Q108.614,300.52 109.076,301.129 Q109.538,301.738 110.231,302.074 Q110.924,302.41 111.827,302.41 Q112.814,302.41 113.518,302.021 Q114.221,301.633 114.662,300.982 Q115.103,300.331 115.313,299.512 Q115.523,298.693 115.523,297.811 z M128.375,301.57 L131.231,292.372 L132.512,292.372 L128.984,303.25 L127.64,303.25 L125.267,294.115 L125.225,294.115 L122.81,303.25 L121.298,303.25 L117.98,292.372 L119.24,292.372 L122.054,301.654 L124.574,292.372 L125.981,292.372 z M135.599,303.25 L134.339,303.25 L134.339,292.372 L135.599,292.372 L135.599,293.884 Q136.355,293.086 137.164,292.582 Q137.972,292.078 139.106,292.078 Q140.114,292.078 140.975,292.424 Q141.836,292.771 142.424,293.632 Q142.823,294.22 142.897,294.839 Q142.97,295.459 142.97,296.131 L142.97,303.25 L141.71,303.25 L141.71,296.152 Q141.71,294.682 141.059,293.947 Q140.408,293.212 138.896,293.212 Q138.308,293.212 137.825,293.391 Q137.342,293.569 136.954,293.863 Q136.565,294.157 136.292,294.535 Q136.019,294.913 135.872,295.333 Q135.683,295.858 135.641,296.341 Q135.599,296.824 135.599,297.391 z" fill-opacity="0" stroke="#FFFFFF" stroke-width="1"/>
        </g>
        <path d="M98,330.5 C61.273,330.5 31.5,317.069 31.5,300.5 C31.5,283.931 61.273,270.5 98,270.5 C134.727,270.5 164.5,283.931 164.5,300.5 C164.5,317.069 134.727,330.5 98,330.5 z" fill-opacity="0" stroke="#D76F9E" stroke-width="3"/>
      </g>
      <g id="HTML">
        <g>
          <text transform="matrix(1, 0, 0, 1, 237.5, 298.5)">
            <tspan x="-28.003" y="4.5" font-family="Helvetica-Light" font-size="21" fill="#FFFFFE">HTML</tspan>
          </text>
          <path d="M211.176,303 L211.176,287.88 L212.604,287.88 L212.604,294.369 L221.55,294.369 L221.55,287.88 L222.979,287.88 L222.979,303 L221.55,303 L221.55,295.587 L212.604,295.587 L212.604,303 z M224.994,287.88 L235.998,287.88 L235.998,289.098 L231.21,289.098 L231.21,303 L229.783,303 L229.783,289.098 L224.994,289.098 z M237.973,303 L237.973,287.88 L240.156,287.88 L245.113,301.215 L245.154,301.215 L250.026,287.88 L252.189,287.88 L252.189,303 L250.761,303 L250.761,289.518 L250.719,289.518 L245.763,303 L244.419,303 L239.442,289.518 L239.4,289.518 L239.4,303 z M255.529,303 L255.529,287.88 L256.956,287.88 L256.956,301.782 L265.062,301.782 L265.062,303 z" fill-opacity="0" stroke="#FFFFFF" stroke-width="1"/>
        </g>
        <path d="M240,330.25 C203.273,330.25 173.5,316.819 173.5,300.25 C173.5,283.681 203.273,270.25 240,270.25 C276.727,270.25 306.5,283.681 306.5,300.25 C306.5,316.819 276.727,330.25 240,330.25 z" fill-opacity="0" stroke="#D76F9E" stroke-width="3"/>
      </g>
      <g id="JNB">
        <g>
          <text transform="matrix(1, 0, 0, 1, 430.75, 312.5)">
            <tspan x="-52.511" y="-9.5" font-family="Helvetica-Light" font-size="21" fill="#FFFFFE">Jupyter NB</tspan>
          </text>
          <path d="M380.129,298.212 Q380.129,298.926 380.182,299.619 Q380.234,300.312 380.497,300.868 Q380.759,301.425 381.316,301.761 Q381.872,302.097 382.859,302.097 Q384.329,302.097 384.928,301.257 Q385.526,300.417 385.526,298.821 L385.526,287.88 L386.954,287.88 L386.954,298.863 Q386.954,301.068 385.926,302.233 Q384.896,303.399 382.691,303.399 Q381.41,303.399 380.633,302.969 Q379.857,302.538 379.426,301.813 Q378.995,301.089 378.849,300.154 Q378.702,299.22 378.702,298.212 z M397.622,292.122 L398.883,292.122 L398.883,303 L397.622,303 L397.622,301.488 Q397.37,301.782 397.056,302.097 Q396.741,302.412 396.331,302.674 Q395.922,302.937 395.375,303.115 Q394.829,303.294 394.116,303.294 Q393.023,303.294 392.289,302.99 Q391.553,302.685 391.102,302.139 Q390.651,301.593 390.451,300.868 Q390.251,300.144 390.251,299.283 L390.251,292.122 L391.512,292.122 L391.512,299.262 Q391.512,300.669 392.163,301.414 Q392.814,302.16 394.305,302.16 Q395.082,302.16 395.701,301.855 Q396.32,301.551 396.741,301.005 Q397.16,300.459 397.392,299.703 Q397.622,298.947 397.622,298.044 z M403.335,297.603 Q403.335,298.527 403.586,299.357 Q403.839,300.186 404.311,300.805 Q404.784,301.425 405.466,301.792 Q406.148,302.16 407.009,302.16 Q407.975,302.16 408.7,301.771 Q409.424,301.383 409.887,300.711 Q410.349,300.039 410.559,299.146 Q410.768,298.254 410.727,297.225 Q410.727,296.196 410.443,295.408 Q410.159,294.621 409.655,294.075 Q409.151,293.529 408.479,293.245 Q407.807,292.962 407.009,292.962 Q406.128,292.962 405.435,293.319 Q404.741,293.676 404.28,294.296 Q403.818,294.915 403.576,295.766 Q403.335,296.616 403.335,297.603 z M403.335,307.284 L402.074,307.284 L402.074,292.122 L403.335,292.122 L403.335,294.033 L403.376,294.033 Q403.65,293.508 404.08,293.088 Q404.51,292.668 405.025,292.395 Q405.539,292.122 406.086,291.975 Q406.632,291.828 407.156,291.828 Q408.479,291.828 409.404,292.269 Q410.327,292.71 410.926,293.477 Q411.525,294.243 411.797,295.293 Q412.07,296.343 412.07,297.54 Q412.07,298.674 411.776,299.724 Q411.482,300.774 410.884,301.561 Q410.285,302.349 409.372,302.822 Q408.458,303.294 407.22,303.294 Q406.064,303.294 405.004,302.779 Q403.944,302.265 403.335,301.257 z M414.674,305.961 Q414.926,306.003 415.189,306.045 Q415.452,306.087 415.724,306.087 Q416.25,306.087 416.586,305.751 Q416.922,305.415 417.142,304.943 Q417.362,304.47 417.509,303.956 Q417.656,303.441 417.845,303.084 L413.625,292.122 L415.031,292.122 L418.517,301.467 L422.004,292.122 L423.368,292.122 L419.315,302.853 Q418.938,303.882 418.591,304.701 Q418.245,305.52 417.856,306.098 Q417.467,306.675 416.995,306.979 Q416.522,307.284 415.871,307.284 Q415.535,307.284 415.231,307.242 Q414.926,307.2 414.674,307.137 z M429.081,303.042 Q428.849,303.084 428.471,303.189 Q428.094,303.294 427.632,303.294 Q426.686,303.294 426.193,302.822 Q425.699,302.349 425.699,301.131 L425.699,293.172 L424.167,293.172 L424.167,292.122 L425.699,292.122 L425.699,289.098 L426.96,289.098 L426.96,292.122 L428.996,292.122 L428.996,293.172 L426.96,293.172 L426.96,300.627 Q426.96,301.026 426.98,301.32 Q427.001,301.614 427.107,301.803 Q427.211,301.992 427.432,302.076 Q427.652,302.16 428.051,302.16 Q428.303,302.16 428.566,302.118 Q428.828,302.076 429.081,302.013 z M438.971,296.805 Q438.971,296.007 438.751,295.303 Q438.53,294.6 438.1,294.085 Q437.669,293.571 437.018,293.266 Q436.367,292.962 435.527,292.962 Q434.688,292.962 434.047,293.277 Q433.406,293.592 432.955,294.117 Q432.504,294.642 432.23,295.335 Q431.957,296.028 431.874,296.805 z M431.874,297.855 Q431.874,298.737 432.104,299.525 Q432.336,300.312 432.787,300.889 Q433.238,301.467 433.931,301.813 Q434.625,302.16 435.527,302.16 Q436.767,302.16 437.648,301.509 Q438.53,300.858 438.824,299.661 L440.232,299.661 Q440,300.438 439.622,301.099 Q439.245,301.761 438.677,302.254 Q438.111,302.748 437.333,303.021 Q436.556,303.294 435.527,303.294 Q434.225,303.294 433.28,302.853 Q432.336,302.412 431.727,301.645 Q431.117,300.879 430.823,299.839 Q430.53,298.8 430.53,297.603 Q430.53,296.406 430.876,295.356 Q431.223,294.306 431.863,293.518 Q432.504,292.731 433.427,292.279 Q434.352,291.828 435.527,291.828 Q437.775,291.828 439.056,293.371 Q440.336,294.915 440.315,297.855 z M444.095,303 L442.836,303 L442.836,292.122 L444.095,292.122 L444.095,294.159 L444.138,294.159 Q444.663,292.857 445.492,292.342 Q446.322,291.828 447.686,291.828 L447.686,293.193 Q446.616,293.172 445.922,293.529 Q445.229,293.886 444.82,294.495 Q444.41,295.104 444.253,295.934 Q444.095,296.763 444.095,297.666 z M457.22,289.812 L457.178,289.812 L457.178,303 L455.75,303 L455.75,287.88 L457.367,287.88 L466.103,301.089 L466.146,301.089 L466.146,287.88 L467.573,287.88 L467.573,303 L465.914,303 z M472.383,301.782 L476.016,301.782 Q477.191,301.782 478.063,301.677 Q478.935,301.572 479.501,301.246 Q480.069,300.921 480.352,300.322 Q480.635,299.724 480.635,298.737 Q480.635,297.792 480.32,297.214 Q480.005,296.637 479.418,296.322 Q478.829,296.007 478.01,295.891 Q477.191,295.776 476.184,295.776 L472.383,295.776 z M472.383,294.558 L475.995,294.558 Q477.107,294.558 477.863,294.369 Q478.62,294.18 479.082,293.812 Q479.543,293.445 479.743,292.909 Q479.943,292.374 479.943,291.681 Q479.943,290.967 479.711,290.473 Q479.48,289.98 478.977,289.675 Q478.473,289.371 477.664,289.234 Q476.855,289.098 475.68,289.098 L472.383,289.098 z M470.954,303 L470.954,287.88 L476.414,287.88 Q477.737,287.88 478.682,288.153 Q479.628,288.426 480.226,288.93 Q480.824,289.434 481.098,290.137 Q481.37,290.841 481.37,291.681 Q481.37,292.479 481.16,293.056 Q480.951,293.634 480.615,294.022 Q480.279,294.411 479.848,294.632 Q479.418,294.852 478.956,294.936 L478.956,294.978 Q480.53,295.209 481.297,296.217 Q482.064,297.225 482.064,298.737 Q482.064,299.913 481.696,300.732 Q481.328,301.551 480.677,302.055 Q480.026,302.559 479.113,302.779 Q478.199,303 477.129,303 z" fill-opacity="0" stroke="#FFFFFF" stroke-width="1"/>
        </g>
        <path d="M429.5,330.25 C391.392,330.25 360.5,316.819 360.5,300.25 C360.5,283.681 391.392,270.25 429.5,270.25 C467.608,270.25 498.5,283.681 498.5,300.25 C498.5,316.819 467.608,330.25 429.5,330.25 z" fill-opacity="0" stroke="#D76F9E" stroke-width="3"/>
      </g>
      <path d="M17.5,259 L513.5,259 L513.5,341.5 L17.5,341.5 L17.5,259 z" fill-opacity="0" stroke="#4E5F99" stroke-width="5"/>
      <path d="M334.5,259 L334.5,342.5" fill-opacity="0" stroke="#4E5F99" stroke-width="2" stroke-dasharray="4,4"/>
    </g>
    <g id="doc_types">
      <g id="MD">
        <g>
          <text transform="matrix(1, 0, 0, 1, 203.182, 411.087)">
            <tspan x="-46.128" y="5.189" font-family="Helvetica" font-size="20" fill="#FFFFFE">Markdown</tspan>
          </text>
          <path d="M158.529,401.931 L161.312,401.931 L165.433,414.06 L169.525,401.931 L172.279,401.931 L172.279,416.277 L170.433,416.277 L170.433,407.81 Q170.433,407.371 170.453,406.355 Q170.472,405.339 170.472,404.177 L166.38,416.277 L164.457,416.277 L160.336,404.177 L160.336,404.617 Q160.336,405.144 160.36,406.223 Q160.384,407.302 160.384,407.81 L160.384,416.277 L158.529,416.277 z M176.908,414.695 Q177.464,415.134 178.226,415.134 Q179.154,415.134 180.023,414.705 Q181.488,413.992 181.488,412.371 L181.488,410.955 Q181.166,411.16 180.658,411.296 Q180.15,411.433 179.662,411.492 L178.597,411.629 Q177.64,411.755 177.162,412.029 Q176.351,412.488 176.351,413.494 Q176.351,414.255 176.908,414.695 z M180.609,409.939 Q181.214,409.861 181.42,409.431 Q181.537,409.197 181.537,408.757 Q181.537,407.859 180.897,407.454 Q180.257,407.048 179.066,407.048 Q177.689,407.048 177.113,407.791 Q176.791,408.201 176.693,409.011 L175.052,409.011 Q175.101,407.078 176.307,406.321 Q177.513,405.564 179.105,405.564 Q180.951,405.564 182.103,406.267 Q183.246,406.97 183.246,408.455 L183.246,414.48 Q183.246,414.754 183.358,414.92 Q183.47,415.086 183.832,415.086 Q183.949,415.086 184.095,415.071 Q184.242,415.056 184.408,415.027 L184.408,416.326 Q183.998,416.443 183.783,416.472 Q183.568,416.502 183.197,416.502 Q182.289,416.502 181.878,415.857 Q181.664,415.515 181.576,414.89 Q181.039,415.593 180.033,416.111 Q179.027,416.629 177.816,416.629 Q176.361,416.629 175.438,415.745 Q174.515,414.861 174.515,413.533 Q174.515,412.078 175.423,411.277 Q176.332,410.476 177.806,410.291 z M186.175,405.818 L187.845,405.818 L187.845,407.625 Q188.05,407.097 188.851,406.34 Q189.652,405.584 190.697,405.584 Q190.746,405.584 190.863,405.593 Q190.98,405.603 191.263,405.632 L191.263,407.488 Q191.107,407.459 190.975,407.449 Q190.843,407.439 190.687,407.439 Q189.359,407.439 188.646,408.294 Q187.933,409.148 187.933,410.261 L187.933,416.277 L186.175,416.277 z M192.748,401.931 L194.437,401.931 L194.437,410.261 L198.949,405.818 L201.195,405.818 L197.191,409.734 L201.42,416.277 L199.173,416.277 L195.912,411.004 L194.437,412.351 L194.437,416.277 L192.748,416.277 z M204.613,413.982 Q205.326,415.115 206.898,415.115 Q208.119,415.115 208.905,414.065 Q209.691,413.015 209.691,411.052 Q209.691,409.07 208.88,408.118 Q208.07,407.166 206.878,407.166 Q205.55,407.166 204.725,408.181 Q203.9,409.197 203.9,411.17 Q203.9,412.849 204.613,413.982 z M208.558,406.14 Q209.027,406.433 209.623,407.166 L209.623,401.882 L211.312,401.882 L211.312,416.277 L209.73,416.277 L209.73,414.822 Q209.115,415.789 208.275,416.218 Q207.435,416.648 206.351,416.648 Q204.603,416.648 203.324,415.178 Q202.045,413.709 202.045,411.267 Q202.045,408.982 203.212,407.307 Q204.378,405.632 206.546,405.632 Q207.748,405.632 208.558,406.14 z M220.458,413.821 Q221.107,412.498 221.107,410.877 Q221.107,409.412 220.638,408.494 Q219.896,407.048 218.08,407.048 Q216.468,407.048 215.736,408.279 Q215.003,409.509 215.003,411.248 Q215.003,412.918 215.736,414.031 Q216.468,415.144 218.06,415.144 Q219.808,415.144 220.458,413.821 z M221.546,406.863 Q222.943,408.211 222.943,410.828 Q222.943,413.357 221.712,415.007 Q220.482,416.658 217.894,416.658 Q215.736,416.658 214.466,415.198 Q213.197,413.738 213.197,411.277 Q213.197,408.64 214.535,407.078 Q215.873,405.515 218.128,405.515 Q220.15,405.515 221.546,406.863 z M225.843,405.818 L227.855,414.06 L229.896,405.818 L231.869,405.818 L233.92,414.011 L236.058,405.818 L237.816,405.818 L234.779,416.277 L232.953,416.277 L230.824,408.181 L228.763,416.277 L226.937,416.277 L223.92,405.818 z M239.476,405.818 L241.146,405.818 L241.146,407.302 Q241.888,406.384 242.718,405.984 Q243.548,405.584 244.564,405.584 Q246.791,405.584 247.572,407.136 Q248.002,407.986 248.002,409.568 L248.002,416.277 L246.214,416.277 L246.214,409.685 Q246.214,408.728 245.931,408.142 Q245.462,407.166 244.232,407.166 Q243.607,407.166 243.207,407.293 Q242.484,407.507 241.937,408.152 Q241.498,408.67 241.366,409.221 Q241.234,409.773 241.234,410.798 L241.234,416.277 L239.476,416.277 z" fill-opacity="0" stroke="#FFFFFF" stroke-width="1"/>
        </g>
        <path d="M205.577,439.431 C170.78,439.431 142.571,427.464 142.571,412.701 C142.571,397.939 170.78,385.971 205.577,385.971 C240.375,385.971 268.584,397.939 268.584,412.701 C268.584,427.464 240.375,439.431 205.577,439.431 z" fill-opacity="0" stroke="#D76F9E" stroke-width="3"/>
      </g>
      <g id="JNB">
        <g>
          <text transform="matrix(1, 0, 0, 1, 346.25, 423.339)">
            <tspan x="-49.463" y="-7.285" font-family="Helvetica" font-size="20" fill="#FFFFFE">Jupyter NB</tspan>
          </text>
          <path d="M305.351,411.777 Q305.351,413.593 304.814,414.599 Q303.818,416.435 301.025,416.435 Q299.414,416.435 298.271,415.561 Q297.129,414.687 297.129,412.451 L297.129,411.425 L298.955,411.425 L298.955,412.451 Q298.955,413.623 299.477,414.213 Q300,414.804 301.103,414.804 Q302.656,414.804 303.134,413.74 Q303.427,413.085 303.427,411.269 L303.427,401.708 L305.351,401.708 z M309.834,405.595 L309.834,412.539 Q309.834,413.339 310.088,413.847 Q310.556,414.785 311.836,414.785 Q313.672,414.785 314.336,413.144 Q314.697,412.265 314.697,410.732 L314.697,405.595 L316.455,405.595 L316.455,416.054 L314.795,416.054 L314.814,414.511 Q314.472,415.107 313.965,415.517 Q312.959,416.337 311.523,416.337 Q309.287,416.337 308.476,414.843 Q308.037,414.042 308.037,412.705 L308.037,405.595 z M325.659,413.842 Q326.474,412.812 326.474,410.761 Q326.474,409.511 326.113,408.613 Q325.429,406.884 323.613,406.884 Q321.787,406.884 321.113,408.71 Q320.752,409.687 320.752,411.191 Q320.752,412.402 321.113,413.251 Q321.797,414.873 323.613,414.873 Q324.843,414.873 325.659,413.842 z M319.062,405.644 L320.771,405.644 L320.771,407.031 Q321.298,406.318 321.923,405.927 Q322.812,405.341 324.013,405.341 Q325.791,405.341 327.031,406.704 Q328.271,408.066 328.271,410.595 Q328.271,414.013 326.484,415.478 Q325.351,416.406 323.847,416.406 Q322.666,416.406 321.865,415.888 Q321.396,415.595 320.82,414.882 L320.82,420.224 L319.062,420.224 z M336.855,405.595 L338.798,405.595 Q338.427,406.601 337.148,410.185 Q336.191,412.88 335.547,414.58 Q334.023,418.583 333.398,419.462 Q332.773,420.341 331.25,420.341 Q330.879,420.341 330.678,420.312 Q330.478,420.283 330.185,420.205 L330.185,418.603 Q330.644,418.73 330.849,418.759 Q331.054,418.789 331.211,418.789 Q331.699,418.789 331.928,418.627 Q332.158,418.466 332.314,418.232 Q332.363,418.154 332.666,417.431 Q332.968,416.708 333.105,416.357 L329.238,405.595 L331.23,405.595 L334.033,414.111 z M340.673,402.675 L342.451,402.675 L342.451,405.595 L344.121,405.595 L344.121,407.031 L342.451,407.031 L342.451,413.857 Q342.451,414.404 342.822,414.589 Q343.027,414.697 343.506,414.697 Q343.632,414.697 343.779,414.692 Q343.925,414.687 344.121,414.667 L344.121,416.054 Q343.818,416.142 343.491,416.181 Q343.164,416.22 342.783,416.22 Q341.552,416.22 341.113,415.59 Q340.673,414.96 340.673,413.955 L340.673,407.031 L339.257,407.031 L339.257,405.595 L340.673,405.595 z M352.392,405.883 Q353.437,406.406 353.984,407.236 Q354.511,408.027 354.687,409.082 Q354.843,409.804 354.843,411.386 L347.177,411.386 Q347.226,412.978 347.929,413.94 Q348.632,414.902 350.107,414.902 Q351.484,414.902 352.304,413.994 Q352.773,413.466 352.968,412.773 L354.697,412.773 Q354.629,413.349 354.243,414.057 Q353.857,414.765 353.379,415.214 Q352.578,415.996 351.396,416.269 Q350.761,416.425 349.961,416.425 Q348.007,416.425 346.65,415.004 Q345.293,413.583 345.293,411.025 Q345.293,408.505 346.66,406.933 Q348.027,405.361 350.234,405.361 Q351.347,405.361 352.392,405.883 z M353.037,409.99 Q352.929,408.847 352.539,408.164 Q351.816,406.894 350.127,406.894 Q348.916,406.894 348.095,407.768 Q347.275,408.642 347.226,409.99 z M357.05,405.595 L358.72,405.595 L358.72,407.402 Q358.925,406.875 359.726,406.118 Q360.527,405.361 361.572,405.361 Q361.621,405.361 361.738,405.371 Q361.855,405.38 362.138,405.41 L362.138,407.265 Q361.982,407.236 361.85,407.226 Q361.718,407.216 361.562,407.216 Q360.234,407.216 359.521,408.071 Q358.808,408.925 358.808,410.039 L358.808,416.054 L357.05,416.054 z M369.453,401.708 L371.748,401.708 L378.994,413.33 L378.994,401.708 L380.84,401.708 L380.84,416.054 L378.662,416.054 L371.308,404.443 L371.308,416.054 L369.453,416.054 z M389.287,407.773 Q390.517,407.773 391.201,407.431 Q392.275,406.894 392.275,405.498 Q392.275,404.091 391.132,403.603 Q390.488,403.33 389.218,403.33 L385.752,403.33 L385.752,407.773 z M389.941,414.394 Q391.728,414.394 392.49,413.359 Q392.968,412.705 392.968,411.777 Q392.968,410.214 391.572,409.648 Q390.83,409.345 389.609,409.345 L385.752,409.345 L385.752,414.394 z M383.847,401.708 L390.009,401.708 Q392.529,401.708 393.593,403.212 Q394.218,404.101 394.218,405.263 Q394.218,406.621 393.447,407.49 Q393.047,407.949 392.295,408.33 Q393.398,408.75 393.945,409.277 Q394.912,410.214 394.912,411.865 Q394.912,413.251 394.043,414.375 Q392.744,416.054 389.912,416.054 L383.847,416.054 z" fill-opacity="0" stroke="#EFAD43" stroke-width="1"/>
        </g>
        <path d="M348.171,439.209 C308.926,439.209 277.111,427.241 277.111,412.478 C277.111,397.716 308.926,385.748 348.171,385.748 C387.416,385.748 419.231,397.716 419.231,412.478 C419.231,427.241 387.416,439.209 348.171,439.209 z" fill-opacity="0" stroke="#D76F9E" stroke-width="3"/>
      </g>
      <g id="RStud">
        <g>
          <text transform="matrix(1, 0, 0, 1, 492.396, 409.974)">
            <tspan x="-35.576" y="6.08" font-family="Helvetica" font-size="20" fill="#5E84B6">RStudio</tspan>
          </text>
          <path d="M465.014,408.281 Q466.381,408.281 467.177,407.734 Q467.973,407.187 467.973,405.761 Q467.973,404.228 466.859,403.671 Q466.264,403.378 465.268,403.378 L460.521,403.378 L460.521,408.281 z M458.578,401.708 L465.219,401.708 Q466.859,401.708 467.924,402.187 Q469.945,403.105 469.945,405.576 Q469.945,406.865 469.413,407.685 Q468.881,408.505 467.924,409.003 Q468.764,409.345 469.188,409.902 Q469.613,410.458 469.662,411.708 L469.73,413.632 Q469.76,414.453 469.867,414.853 Q470.043,415.537 470.492,415.732 L470.492,416.054 L468.109,416.054 Q468.012,415.869 467.953,415.576 Q467.894,415.283 467.855,414.443 L467.738,412.05 Q467.67,410.644 466.693,410.166 Q466.137,409.902 464.945,409.902 L460.521,409.902 L460.521,416.054 L458.578,416.054 z M474.057,411.425 Q474.125,412.646 474.633,413.408 Q475.6,414.833 478.041,414.833 Q479.135,414.833 480.033,414.521 Q481.771,413.916 481.771,412.353 Q481.771,411.181 481.039,410.683 Q480.297,410.195 478.715,409.833 L476.771,409.394 Q474.867,408.964 474.076,408.447 Q472.709,407.548 472.709,405.761 Q472.709,403.828 474.047,402.587 Q475.385,401.347 477.836,401.347 Q480.092,401.347 481.669,402.436 Q483.246,403.525 483.246,405.917 L481.42,405.917 Q481.273,404.765 480.795,404.15 Q479.906,403.027 477.777,403.027 Q476.059,403.027 475.307,403.75 Q474.555,404.472 474.555,405.429 Q474.555,406.484 475.434,406.972 Q476.01,407.285 478.041,407.753 L480.053,408.212 Q481.508,408.544 482.299,409.121 Q483.666,410.126 483.666,412.041 Q483.666,414.423 481.933,415.449 Q480.199,416.474 477.904,416.474 Q475.228,416.474 473.715,415.107 Q472.201,413.75 472.23,411.425 z M486.244,402.675 L488.021,402.675 L488.021,405.595 L489.691,405.595 L489.691,407.031 L488.021,407.031 L488.021,413.857 Q488.021,414.404 488.393,414.589 Q488.598,414.697 489.076,414.697 Q489.203,414.697 489.35,414.692 Q489.496,414.687 489.691,414.667 L489.691,416.054 Q489.389,416.142 489.061,416.181 Q488.734,416.22 488.353,416.22 Q487.123,416.22 486.684,415.59 Q486.244,414.96 486.244,413.955 L486.244,407.031 L484.828,407.031 L484.828,405.595 L486.244,405.595 z M493.207,405.595 L493.207,412.539 Q493.207,413.339 493.461,413.847 Q493.93,414.785 495.209,414.785 Q497.045,414.785 497.709,413.144 Q498.07,412.265 498.07,410.732 L498.07,405.595 L499.828,405.595 L499.828,416.054 L498.168,416.054 L498.187,414.511 Q497.846,415.107 497.338,415.517 Q496.332,416.337 494.896,416.337 Q492.66,416.337 491.85,414.843 Q491.41,414.042 491.41,412.705 L491.41,405.595 z M504.398,413.759 Q505.111,414.892 506.684,414.892 Q507.904,414.892 508.69,413.842 Q509.477,412.792 509.477,410.83 Q509.477,408.847 508.666,407.895 Q507.855,406.943 506.664,406.943 Q505.336,406.943 504.511,407.958 Q503.685,408.974 503.685,410.947 Q503.685,412.626 504.398,413.759 z M508.344,405.917 Q508.812,406.21 509.408,406.943 L509.408,401.66 L511.098,401.66 L511.098,416.054 L509.516,416.054 L509.516,414.599 Q508.9,415.566 508.06,415.996 Q507.221,416.425 506.137,416.425 Q504.389,416.425 503.109,414.956 Q501.83,413.486 501.83,411.044 Q501.83,408.759 502.997,407.084 Q504.164,405.41 506.332,405.41 Q507.533,405.41 508.344,405.917 z M513.695,405.644 L515.482,405.644 L515.482,416.054 L513.695,416.054 z M513.695,401.708 L515.482,401.708 L515.482,403.701 L513.695,403.701 z M524.686,413.598 Q525.336,412.275 525.336,410.654 Q525.336,409.189 524.867,408.271 Q524.125,406.826 522.309,406.826 Q520.697,406.826 519.965,408.056 Q519.232,409.287 519.232,411.025 Q519.232,412.695 519.965,413.808 Q520.697,414.921 522.289,414.921 Q524.037,414.921 524.686,413.598 z M525.775,406.64 Q527.172,407.988 527.172,410.605 Q527.172,413.134 525.941,414.785 Q524.711,416.435 522.123,416.435 Q519.965,416.435 518.695,414.975 Q517.426,413.515 517.426,411.054 Q517.426,408.417 518.764,406.855 Q520.102,405.292 522.357,405.292 Q524.379,405.292 525.775,406.64 z" fill-opacity="0" stroke="#688BBB" stroke-width="1"/>
        </g>
        <path d="M491.238,439.209 C455.133,439.209 425.863,427.241 425.863,412.478 C425.863,397.716 455.133,385.748 491.238,385.748 C527.344,385.748 556.614,397.716 556.614,412.478 C556.614,427.241 527.344,439.209 491.238,439.209 z" fill-opacity="0" stroke="#D76F9E" stroke-width="3"/>
      </g>
      <path d="M129.306,375.725 L567.036,375.725 L567.036,449.232 L129.306,449.232 L129.306,375.725 z" fill-opacity="0" stroke="#4E5F99" stroke-width="5"/>
    </g>
    <g>
      <path d="M279.5,97.345 L279.5,130.953" fill-opacity="0" stroke="#83C27C" stroke-width="6"/>
      <path d="M285.5,97.345 L279.5,81.345 L273.5,97.345 z" fill="#83C27C" fill-opacity="1" stroke="#83C27C" stroke-width="6" stroke-opacity="1"/>
    </g>
    <g>
      <path d="M154,234.196 L154,259" fill-opacity="0" stroke="#83C27C" stroke-width="6"/>
      <path d="M160,234.196 L154,218.196 L148,234.196 z" fill="#83C27C" fill-opacity="1" stroke="#83C27C" stroke-width="6" stroke-opacity="1"/>
    </g>
    <g>
      <path d="M236.352,342.323 L236.312,375.725" fill-opacity="0" stroke="#C0945E" stroke-width="6"/>
      <path d="M242.352,342.331 L236.371,326.323 L230.352,342.316 z" fill="#C0945E" fill-opacity="1" stroke="#C0945E" stroke-width="6" stroke-opacity="1"/>
    </g>
    <g>
      <path d="M348.5,50.558 C504.572,104.341 497.949,142.998 484.183,159.344" fill-opacity="0" stroke="#F1B440" stroke-width="3"/>
      <path d="M481.498,156.114 L475.571,166.504 L486.868,162.573 z" fill="#F1B440" fill-opacity="1" stroke="#F1B440" stroke-width="3" stroke-opacity="1"/>
    </g>
    <path d="M520.929,130.953 L515.244,102.2 L486.493,101.483 L500.259,75.73 L478.687,56.332 L505.463,45.63 L501.163,16.628 L528.421,25.983 L543.405,0.947 L558.389,25.983 L585.647,16.628 L581.346,45.63 L608.123,56.332 L586.55,75.73 L600.317,101.483 L571.566,102.2 L565.881,130.953 L543.405,112.654 z" fill-opacity="0" stroke="#EDE755" stroke-width="3"/>
    <g>
      <text transform="matrix(1, 0, 0, 1, 542.905, 74.551)">
        <tspan x="-19.57" y="-12.063" font-family="Helvetica" font-size="16" fill="#FFFFFE">Open </tspan>
        <tspan x="-34.238" y="7.937" font-family="Helvetica" font-size="16" fill="#FFFFFE">Research</tspan>
      </text>
      <path d="M534.006,52.653 Q535.147,54.176 535.147,56.551 Q535.147,59.122 533.842,60.825 Q532.311,62.825 529.475,62.825 Q526.827,62.825 525.311,61.075 Q523.96,59.387 523.96,56.809 Q523.96,54.481 525.116,52.825 Q526.6,50.7 529.506,50.7 Q532.546,50.7 534.006,52.653 z M532.635,59.961 Q533.553,58.489 533.553,56.575 Q533.553,54.551 532.495,53.317 Q531.436,52.083 529.6,52.083 Q527.819,52.083 526.694,53.305 Q525.569,54.528 525.569,56.911 Q525.569,58.817 526.534,60.126 Q527.499,61.434 529.663,61.434 Q531.717,61.434 532.635,59.961 z M541.979,60.719 Q542.631,59.895 542.631,58.254 Q542.631,57.254 542.342,56.536 Q541.796,55.153 540.342,55.153 Q538.881,55.153 538.342,56.614 Q538.053,57.395 538.053,58.598 Q538.053,59.567 538.342,60.247 Q538.889,61.544 540.342,61.544 Q541.327,61.544 541.979,60.719 z M536.702,54.161 L538.069,54.161 L538.069,55.27 Q538.491,54.7 538.991,54.387 Q539.702,53.919 540.663,53.919 Q542.085,53.919 543.077,55.008 Q544.069,56.098 544.069,58.122 Q544.069,60.856 542.639,62.028 Q541.733,62.77 540.53,62.77 Q539.585,62.77 538.944,62.356 Q538.569,62.122 538.108,61.551 L538.108,65.825 L536.702,65.825 z M550.921,54.352 Q551.756,54.77 552.194,55.434 Q552.616,56.067 552.756,56.911 Q552.881,57.489 552.881,58.754 L546.749,58.754 Q546.788,60.028 547.35,60.797 Q547.913,61.567 549.092,61.567 Q550.194,61.567 550.85,60.84 Q551.225,60.419 551.381,59.864 L552.764,59.864 Q552.71,60.325 552.401,60.891 Q552.092,61.458 551.71,61.817 Q551.069,62.442 550.124,62.661 Q549.616,62.786 548.975,62.786 Q547.413,62.786 546.327,61.649 Q545.241,60.512 545.241,58.465 Q545.241,56.45 546.335,55.192 Q547.428,53.934 549.194,53.934 Q550.085,53.934 550.921,54.352 z M551.436,57.637 Q551.35,56.723 551.038,56.176 Q550.46,55.161 549.108,55.161 Q548.139,55.161 547.483,55.86 Q546.827,56.559 546.788,57.637 z M554.608,54.122 L555.944,54.122 L555.944,55.309 Q556.538,54.575 557.202,54.254 Q557.866,53.934 558.678,53.934 Q560.46,53.934 561.085,55.176 Q561.428,55.856 561.428,57.122 L561.428,62.489 L559.999,62.489 L559.999,57.215 Q559.999,56.45 559.772,55.981 Q559.397,55.2 558.413,55.2 Q557.913,55.2 557.592,55.301 Q557.014,55.473 556.577,55.989 Q556.225,56.403 556.12,56.844 Q556.014,57.286 556.014,58.106 L556.014,62.489 L554.608,62.489 z M515.221,76.27 Q516.315,76.27 516.952,75.833 Q517.589,75.395 517.589,74.254 Q517.589,73.028 516.698,72.583 Q516.221,72.348 515.424,72.348 L511.628,72.348 L511.628,76.27 z M510.073,71.012 L515.385,71.012 Q516.698,71.012 517.549,71.395 Q519.167,72.129 519.167,74.106 Q519.167,75.137 518.741,75.794 Q518.315,76.45 517.549,76.848 Q518.221,77.122 518.561,77.567 Q518.901,78.012 518.94,79.012 L518.995,80.551 Q519.018,81.208 519.104,81.528 Q519.245,82.075 519.604,82.231 L519.604,82.489 L517.698,82.489 Q517.62,82.34 517.573,82.106 Q517.526,81.872 517.495,81.2 L517.401,79.286 Q517.346,78.161 516.565,77.778 Q516.12,77.567 515.167,77.567 L511.628,77.567 L511.628,82.489 L510.073,82.489 z M526.464,74.352 Q527.299,74.77 527.737,75.434 Q528.159,76.067 528.299,76.911 Q528.424,77.489 528.424,78.754 L522.292,78.754 Q522.331,80.028 522.893,80.797 Q523.456,81.567 524.635,81.567 Q525.737,81.567 526.393,80.84 Q526.768,80.419 526.924,79.864 L528.307,79.864 Q528.253,80.325 527.944,80.891 Q527.635,81.458 527.253,81.817 Q526.612,82.442 525.667,82.661 Q525.159,82.786 524.518,82.786 Q522.956,82.786 521.87,81.649 Q520.784,80.512 520.784,78.465 Q520.784,76.45 521.878,75.192 Q522.971,73.934 524.737,73.934 Q525.628,73.934 526.464,74.352 z M526.979,77.637 Q526.893,76.723 526.581,76.176 Q526.003,75.161 524.651,75.161 Q523.682,75.161 523.026,75.86 Q522.37,76.559 522.331,77.637 z M530.987,79.864 Q531.049,80.567 531.339,80.942 Q531.87,81.622 533.182,81.622 Q533.964,81.622 534.557,81.282 Q535.151,80.942 535.151,80.231 Q535.151,79.692 534.674,79.411 Q534.37,79.239 533.471,79.012 L532.354,78.731 Q531.284,78.465 530.776,78.137 Q529.87,77.567 529.87,76.559 Q529.87,75.372 530.725,74.637 Q531.581,73.903 533.026,73.903 Q534.917,73.903 535.753,75.012 Q536.276,75.715 536.26,76.528 L534.932,76.528 Q534.893,76.051 534.596,75.661 Q534.112,75.106 532.917,75.106 Q532.12,75.106 531.71,75.411 Q531.299,75.715 531.299,76.215 Q531.299,76.762 531.839,77.09 Q532.151,77.286 532.76,77.434 L533.69,77.661 Q535.206,78.028 535.721,78.372 Q536.542,78.911 536.542,80.067 Q536.542,81.184 535.694,81.997 Q534.846,82.809 533.112,82.809 Q531.245,82.809 530.467,81.961 Q529.69,81.114 529.635,79.864 z M543.362,74.352 Q544.198,74.77 544.635,75.434 Q545.057,76.067 545.198,76.911 Q545.323,77.489 545.323,78.754 L539.19,78.754 Q539.229,80.028 539.792,80.797 Q540.354,81.567 541.534,81.567 Q542.635,81.567 543.292,80.84 Q543.667,80.419 543.823,79.864 L545.206,79.864 Q545.151,80.325 544.842,80.891 Q544.534,81.458 544.151,81.817 Q543.51,82.442 542.565,82.661 Q542.057,82.786 541.417,82.786 Q539.854,82.786 538.768,81.649 Q537.682,80.512 537.682,78.465 Q537.682,76.45 538.776,75.192 Q539.87,73.934 541.635,73.934 Q542.526,73.934 543.362,74.352 z M543.878,77.637 Q543.792,76.723 543.479,76.176 Q542.901,75.161 541.549,75.161 Q540.581,75.161 539.924,75.86 Q539.268,76.559 539.229,77.637 z M548.573,81.223 Q549.018,81.575 549.628,81.575 Q550.37,81.575 551.065,81.231 Q552.237,80.661 552.237,79.364 L552.237,78.231 Q551.979,78.395 551.573,78.504 Q551.167,78.614 550.776,78.661 L549.924,78.77 Q549.159,78.872 548.776,79.09 Q548.128,79.458 548.128,80.262 Q548.128,80.872 548.573,81.223 z M551.534,77.419 Q552.018,77.356 552.182,77.012 Q552.276,76.825 552.276,76.473 Q552.276,75.754 551.764,75.43 Q551.253,75.106 550.299,75.106 Q549.198,75.106 548.737,75.7 Q548.479,76.028 548.401,76.676 L547.089,76.676 Q547.128,75.129 548.092,74.524 Q549.057,73.919 550.331,73.919 Q551.807,73.919 552.729,74.481 Q553.643,75.044 553.643,76.231 L553.643,81.051 Q553.643,81.27 553.733,81.403 Q553.823,81.536 554.112,81.536 Q554.206,81.536 554.323,81.524 Q554.44,81.512 554.573,81.489 L554.573,82.528 Q554.245,82.622 554.073,82.645 Q553.901,82.669 553.604,82.669 Q552.878,82.669 552.549,82.153 Q552.378,81.879 552.307,81.379 Q551.878,81.942 551.073,82.356 Q550.268,82.77 549.299,82.77 Q548.135,82.77 547.397,82.063 Q546.659,81.356 546.659,80.294 Q546.659,79.129 547.385,78.489 Q548.112,77.848 549.292,77.7 z M555.987,74.122 L557.323,74.122 L557.323,75.567 Q557.487,75.145 558.128,74.54 Q558.768,73.934 559.604,73.934 Q559.643,73.934 559.737,73.942 Q559.831,73.95 560.057,73.973 L560.057,75.458 Q559.932,75.434 559.827,75.426 Q559.721,75.419 559.596,75.419 Q558.534,75.419 557.964,76.102 Q557.393,76.786 557.393,77.676 L557.393,82.489 L555.987,82.489 z M566.803,74.567 Q567.69,75.254 567.87,76.934 L566.503,76.934 Q566.378,76.161 565.932,75.649 Q565.487,75.137 564.503,75.137 Q563.159,75.137 562.581,76.45 Q562.206,77.301 562.206,78.551 Q562.206,79.809 562.737,80.669 Q563.268,81.528 564.409,81.528 Q565.284,81.528 565.796,80.993 Q566.307,80.458 566.503,79.528 L567.87,79.528 Q567.635,81.192 566.698,81.961 Q565.76,82.731 564.299,82.731 Q562.659,82.731 561.682,81.532 Q560.706,80.333 560.706,78.536 Q560.706,76.333 561.776,75.106 Q562.846,73.879 564.503,73.879 Q565.917,73.879 566.803,74.567 z M569.276,70.973 L570.682,70.973 L570.682,75.254 Q571.182,74.622 571.581,74.364 Q572.26,73.919 573.276,73.919 Q575.096,73.919 575.745,75.192 Q576.096,75.887 576.096,77.122 L576.096,82.489 L574.651,82.489 L574.651,77.215 Q574.651,76.294 574.417,75.864 Q574.034,75.176 572.979,75.176 Q572.104,75.176 571.393,75.778 Q570.682,76.379 570.682,78.051 L570.682,82.489 L569.276,82.489 z" fill-opacity="0" stroke="#FFFFFF" stroke-width="1"/>
    </g>
    <g>
      <path d="M357.804,152.861 L348.224,122.115 L373.305,103.114 L398.387,122.115 L388.806,152.861 z" fill-opacity="0" stroke="#F1B440" stroke-width="4"/>
      <g>
        <text transform="matrix(1, 0, 0, 1, 372.805, 132.989)">
          <tspan x="-10.224" y="1.179" font-family="Helvetica-LightOblique" font-size="16" fill="#FFFFFE">Git</tspan>
        </text>
        <path d="M369.845,129.144 L370.037,128.216 L374.965,128.216 L373.701,134.168 L372.773,134.168 L373.189,132.2 Q372.373,133.24 371.237,133.856 Q370.101,134.472 368.405,134.472 Q367.317,134.472 366.469,134.088 Q365.621,133.704 365.117,132.944 Q364.613,132.184 364.477,131.032 Q364.341,129.88 364.661,128.344 Q364.933,127.08 365.485,125.984 Q366.037,124.888 366.869,124.08 Q367.701,123.272 368.805,122.808 Q369.909,122.344 371.269,122.344 Q372.181,122.344 372.925,122.568 Q373.669,122.792 374.205,123.248 Q374.741,123.704 375.029,124.384 Q375.317,125.064 375.317,125.992 L374.197,125.992 Q374.197,125.352 373.957,124.84 Q373.717,124.328 373.309,123.984 Q372.901,123.64 372.349,123.456 Q371.797,123.272 371.157,123.272 Q370.021,123.272 369.117,123.672 Q368.213,124.072 367.533,124.8 Q366.853,125.528 366.389,126.544 Q365.925,127.56 365.669,128.776 Q365.461,129.736 365.557,130.6 Q365.653,131.464 366.053,132.12 Q366.453,132.776 367.141,133.16 Q367.829,133.544 368.821,133.544 Q369.285,133.544 369.805,133.44 Q370.325,133.336 370.837,133.096 Q371.349,132.856 371.837,132.472 Q372.325,132.088 372.725,131.528 Q373.125,130.984 373.349,130.392 Q373.573,129.8 373.733,129.144 z M376.325,134.168 L378.085,125.88 L379.045,125.88 L377.285,134.168 z M378.421,124.072 L378.725,122.648 L379.781,122.648 L379.477,124.072 z M382.645,134.2 Q382.469,134.232 382.157,134.312 Q381.845,134.392 381.493,134.392 Q380.773,134.392 380.477,134.032 Q380.181,133.672 380.373,132.744 L381.653,126.68 L380.485,126.68 L380.661,125.88 L381.829,125.88 L382.325,123.576 L383.285,123.576 L382.789,125.88 L384.341,125.88 L384.165,126.68 L382.613,126.68 L381.413,132.36 Q381.349,132.664 381.317,132.888 Q381.285,133.112 381.341,133.256 Q381.397,133.4 381.549,133.464 Q381.701,133.528 382.005,133.528 Q382.197,133.528 382.397,133.496 Q382.597,133.464 382.805,133.416 z" fill-opacity="0" stroke="#E67A4E" stroke-width="1"/>
      </g>
    </g>
  </g>
</svg>
